<svg width="251" height="40" viewBox="0 0 251 40" fill="none" xmlns="http://www.w3.org/2000/svg">
<path d="M7.36842 1.00387e-06H0V6.66737C8.83764 6.67656 17.3107 10.1913 23.5599 16.4404C29.8092 22.6894 33.3242 31.1624 33.3337 40H40V32.6316C38.4928 24.5332 34.5684 17.0811 28.7437 11.2563C22.9189 5.43156 15.4668 1.50724 7.36842 1.00387e-06Z" fill="#F0F8FF"/>
<path d="M37.007 0H25.2796C31.2122 3.75961 36.2391 8.7858 39.9996 14.7179V2.99053C39.999 2.1972 39.6835 1.43655 39.1223 0.875776C38.5612 0.315004 37.8003 -1.96304e-07 37.007 0Z" fill="#F0F8FF"/>
<path d="M0 13.3316V20.7369C2.53053 20.7351 5.03657 21.2324 7.37472 22.2001C9.71288 23.1679 11.8373 24.5872 13.6263 26.3769C15.4149 28.1659 16.8334 30.2899 17.8006 32.6275C18.7678 34.965 19.2648 37.4703 19.2632 40H26.6632C26.6565 32.9301 23.8453 26.1516 18.8466 21.1519C13.8479 16.1522 7.06994 13.3397 0 13.3316Z" fill="#F0F8FF"/>
<path d="M50.2293 31V6.82031H56.5744V16.1492H66.3148V6.82031H72.6599V31H66.3148V21.3281H56.5744V31H50.2293Z" fill="#F0F8FF"/>
<path d="M83.8127 31.3773C82.3036 31.3773 80.9774 31.0229 79.8342 30.3141C78.6909 29.5824 77.7878 28.5306 77.1247 27.1587C76.4845 25.7868 76.1644 24.1634 76.1644 22.2885C76.1644 20.3907 76.4845 18.7672 77.1247 17.4182C77.7878 16.0463 78.6909 15.006 79.8342 14.2971C80.9774 13.5655 82.3036 13.1996 83.8127 13.1996C85.1617 13.1996 86.3736 13.5197 87.4482 14.16C88.5457 14.8002 89.266 15.6347 89.609 16.6637H89.266L89.6432 13.5769H95.5081C95.4395 14.3543 95.3709 15.1432 95.3023 15.9434C95.2566 16.7437 95.2337 17.5325 95.2337 18.3099V31H89.1974L89.1288 28.0504H89.5404C89.1974 29.0565 88.4771 29.8682 87.3796 30.4855C86.305 31.08 85.116 31.3773 83.8127 31.3773ZM85.7676 26.85C86.7966 26.85 87.6311 26.4956 88.2714 25.7868C88.9116 25.0551 89.2317 23.889 89.2317 22.2885C89.2317 20.6879 88.9116 19.5332 88.2714 18.8244C87.6311 18.0927 86.7966 17.7269 85.7676 17.7269C84.7387 17.7269 83.9042 18.0927 83.2639 18.8244C82.6237 19.5332 82.3036 20.6879 82.3036 22.2885C82.3036 23.889 82.6123 25.0551 83.2296 25.7868C83.8698 26.4956 84.7159 26.85 85.7676 26.85Z" fill="#F0F8FF"/>
<path d="M99.0981 38.7855L97.6576 34.0525C98.7551 33.8467 99.6697 33.618 100.401 33.3665C101.156 33.1379 101.773 32.8178 102.253 32.4062C102.734 31.9946 103.111 31.4573 103.385 30.7942L104.243 28.805L104.106 31.1029L96.4915 13.5769H102.939L107.398 25.1351H106.266L110.862 13.5769H116.898L109.079 31.3773C108.461 32.772 107.798 33.9153 107.089 34.807C106.403 35.6988 105.649 36.4076 104.826 36.9335C104.025 37.4594 103.145 37.8481 102.185 38.0996C101.247 38.374 100.218 38.6026 99.0981 38.7855Z" fill="#F0F8FF"/>
<path d="M124.818 31.3773C123.332 31.3773 122.006 31.0229 120.84 30.3141C119.674 29.5824 118.759 28.5306 118.096 27.1587C117.433 25.7868 117.102 24.1634 117.102 22.2885C117.102 20.3907 117.422 18.7672 118.062 17.4182C118.725 16.0463 119.64 15.006 120.806 14.2971C121.995 13.5655 123.332 13.1996 124.818 13.1996C126.145 13.1996 127.345 13.5083 128.42 14.1257C129.494 14.7202 130.215 15.5204 130.58 16.5265H130.066V5.75709H136.171V31H130.169V27.8789H130.615C130.295 28.9307 129.586 29.7767 128.488 30.4169C127.414 31.0572 126.19 31.3773 124.818 31.3773ZM126.773 26.85C127.779 26.85 128.603 26.4956 129.243 25.7868C129.906 25.0551 130.237 23.889 130.237 22.2885C130.237 20.6879 129.906 19.5332 129.243 18.8244C128.603 18.0927 127.779 17.7269 126.773 17.7269C125.745 17.7269 124.899 18.0927 124.235 18.8244C123.595 19.5332 123.275 20.6879 123.275 22.2885C123.275 23.889 123.595 25.0551 124.235 25.7868C124.899 26.4956 125.745 26.85 126.773 26.85Z" fill="#F0F8FF"/>
<path d="M149.326 31.3773C146.171 31.3773 143.713 30.5656 141.952 28.9422C140.214 27.3187 139.345 25.0894 139.345 22.2542C139.345 20.4936 139.711 18.9273 140.443 17.5554C141.175 16.1835 142.203 15.1203 143.53 14.3657C144.856 13.5883 146.411 13.1996 148.194 13.1996C149.955 13.1996 151.418 13.5883 152.584 14.3657C153.773 15.1203 154.665 16.1721 155.259 17.5211C155.854 18.8473 156.151 20.3907 156.151 22.1513V23.4546H144.456V20.5736H151.658L151.075 21.0537C151.075 19.7504 150.824 18.7901 150.321 18.1728C149.84 17.5325 149.154 17.2124 148.263 17.2124C147.234 17.2124 146.445 17.6011 145.896 18.3785C145.37 19.1331 145.107 20.2763 145.107 21.8083V22.4256C145.107 23.9576 145.485 25.078 146.239 25.7868C146.994 26.4956 148.08 26.85 149.497 26.85C150.412 26.85 151.269 26.7471 152.07 26.5413C152.893 26.3355 153.67 26.004 154.402 25.5467L155.98 29.5252C155.111 30.1197 154.105 30.577 152.961 30.8971C151.818 31.2172 150.606 31.3773 149.326 31.3773Z" fill="#F0F8FF"/>
<path d="M160.361 31V6.82031H170.033C172.594 6.82031 174.572 7.36907 175.967 8.46659C177.361 9.5641 178.059 11.1189 178.059 13.131C178.059 14.6401 177.602 15.8977 176.687 16.9038C175.795 17.9098 174.549 18.5729 172.949 18.893V18.4128C174.732 18.6186 176.127 19.236 177.133 20.2649C178.162 21.271 178.676 22.6314 178.676 24.3463C178.676 26.4956 177.956 28.1419 176.515 29.2851C175.098 30.4284 173.086 31 170.479 31H160.361ZM163.139 28.7021H170.205C171.942 28.7021 173.314 28.3705 174.32 27.7074C175.349 27.0215 175.864 25.8897 175.864 24.312C175.864 22.7115 175.349 21.5796 174.32 20.9166C173.314 20.2306 171.942 19.8876 170.205 19.8876H163.139V28.7021ZM163.139 17.624H169.622C171.497 17.624 172.903 17.2582 173.84 16.5265C174.778 15.7948 175.246 14.743 175.246 13.3711C175.246 11.9535 174.778 10.8903 173.84 10.1815C172.903 9.44978 171.497 9.08394 169.622 9.08394H163.139V17.624Z" fill="#F0F8FF"/>
<path d="M191.184 31.3087C188.486 31.3087 186.36 30.5313 184.805 28.9765C183.25 27.3988 182.472 25.2152 182.472 22.4256C182.472 20.6193 182.815 19.0531 183.501 17.7269C184.187 16.3779 185.148 15.3375 186.382 14.6058C187.617 13.8513 189.035 13.474 190.635 13.474C192.213 13.474 193.539 13.8056 194.614 14.4686C195.688 15.1317 196.512 16.0806 197.083 17.3153C197.655 18.5272 197.941 19.9677 197.941 21.6368V22.6657H184.599V20.9166H196.123L195.54 21.3624C195.54 19.5332 195.128 18.1042 194.305 17.0752C193.482 16.0463 192.259 15.5319 190.635 15.5319C188.92 15.5319 187.583 16.1378 186.622 17.3496C185.662 18.5386 185.182 20.1506 185.182 22.1856V22.4942C185.182 24.6435 185.708 26.2784 186.76 27.3988C187.834 28.4963 189.332 29.045 191.253 29.045C192.282 29.045 193.242 28.8964 194.134 28.5992C195.048 28.2791 195.917 27.7646 196.74 27.0558L197.701 29.0107C196.946 29.7424 195.986 30.3141 194.82 30.7256C193.676 31.1143 192.464 31.3087 191.184 31.3087Z" fill="#F0F8FF"/>
<path d="M202.295 31V17.9327C202.295 17.2467 202.272 16.5493 202.226 15.8405C202.203 15.1317 202.157 14.4458 202.089 13.7827H204.764L205.107 17.967L204.627 18.0013C204.855 16.9723 205.256 16.1263 205.827 15.4633C206.399 14.8002 207.073 14.3086 207.851 13.9885C208.628 13.6455 209.44 13.474 210.286 13.474C210.629 13.474 210.926 13.4854 211.178 13.5083C211.452 13.5312 211.703 13.5883 211.932 13.6798L211.898 16.1492C211.555 16.0349 211.235 15.9663 210.937 15.9434C210.663 15.8977 210.343 15.8748 209.977 15.8748C208.971 15.8748 208.091 16.1149 207.336 16.5951C206.605 17.0752 206.044 17.6926 205.656 18.4471C205.29 19.2017 205.107 20.002 205.107 20.848V31H202.295Z" fill="#F0F8FF"/>
<path d="M214.994 31V13.7827H217.772V31H214.994ZM214.651 9.87278V6.75171H218.081V9.87278H214.651Z" fill="#F0F8FF"/>
<path d="M229.443 31.3087C227.751 31.3087 226.459 30.8285 225.567 29.8682C224.676 28.885 224.23 27.4102 224.23 25.4438V15.9434H220.869V13.7827H224.23V9.08394L227.008 8.2951V13.7827H231.947V15.9434H227.008V25.1351C227.008 26.507 227.237 27.4902 227.694 28.0847C228.174 28.6563 228.883 28.9422 229.82 28.9422C230.255 28.9422 230.643 28.9079 230.986 28.8393C231.329 28.7478 231.638 28.6449 231.913 28.5306V30.8628C231.592 31 231.204 31.1029 230.746 31.1715C230.312 31.2629 229.878 31.3087 229.443 31.3087Z" fill="#F0F8FF"/>
<path d="M242.051 31.3087C240.519 31.3087 239.182 30.9543 238.038 30.2455C236.895 29.5138 236.003 28.4849 235.363 27.1587C234.746 25.8325 234.437 24.2434 234.437 22.3913C234.437 20.5164 234.746 18.9159 235.363 17.5897C236.003 16.2635 236.895 15.246 238.038 14.5372C239.182 13.8284 240.519 13.474 242.051 13.474C243.606 13.474 244.944 13.8741 246.064 14.6744C247.207 15.4518 247.962 16.515 248.328 17.8641H247.916L248.293 13.7827H250.968C250.9 14.4458 250.831 15.1203 250.763 15.8062C250.717 16.4693 250.694 17.121 250.694 17.7612V31H247.916V26.9529H248.293C247.927 28.3019 247.173 29.3652 246.03 30.1426C244.886 30.92 243.56 31.3087 242.051 31.3087ZM242.6 29.045C244.246 29.045 245.549 28.4849 246.51 27.3645C247.47 26.2212 247.95 24.5635 247.95 22.3913C247.95 20.1963 247.47 18.5386 246.51 17.4182C245.549 16.275 244.246 15.7033 242.6 15.7033C240.976 15.7033 239.673 16.275 238.69 17.4182C237.73 18.5386 237.249 20.1963 237.249 22.3913C237.249 24.5635 237.73 26.2212 238.69 27.3645C239.673 28.4849 240.976 29.045 242.6 29.045Z" fill="#F0F8FF"/>
</svg>
