<svg width="69" height="30" viewBox="0 0 69 30" fill="none" xmlns="http://www.w3.org/2000/svg">
<rect width="69" height="30" rx="7" transform="matrix(-1 0 0 1 69 0)" fill="#B46060"/>
<path d="M9 23C9 23.5304 9.21071 24.0391 9.58579 24.4142C9.96086 24.7893 10.4696 25 11 25H21C21.5304 25 22.0391 24.7893 22.4142 24.4142C22.7893 24.0391 23 23.5304 23 23V11H25V9H21V7C21 6.46957 20.7893 5.96086 20.4142 5.58579C20.0391 5.21071 19.5304 5 19 5H13C12.4696 5 11.9609 5.21071 11.5858 5.58579C11.2107 5.96086 11 6.46957 11 7V9H7V11H9V23ZM13 7H19V9H13V7ZM12 11H21V23H11V11H12Z" fill="#E4F5FF"/>
<path d="M13 13H15V21H13V13ZM17 13H19V21H17V13Z" fill="#E4F5FF"/>
<path d="M30.25 11.98C30.99 11.98 31.6367 12.1267 32.19 12.42C32.7433 12.7133 33.17 13.1267 33.47 13.66C33.7767 14.1867 33.93 14.7967 33.93 15.49C33.93 16.1767 33.7767 16.7867 33.47 17.32C33.17 17.8533 32.74 18.2667 32.18 18.56C31.6267 18.8533 30.9833 19 30.25 19H27.62V11.98H30.25ZM30.14 17.52C30.7867 17.52 31.29 17.3433 31.65 16.99C32.01 16.6367 32.19 16.1367 32.19 15.49C32.19 14.8433 32.01 14.34 31.65 13.98C31.29 13.62 30.7867 13.44 30.14 13.44H29.33V17.52H30.14ZM40.1956 16.12C40.1956 16.28 40.1856 16.4467 40.1656 16.62H36.2956C36.3223 16.9667 36.4323 17.2333 36.6256 17.42C36.8256 17.6 37.069 17.69 37.3556 17.69C37.7823 17.69 38.079 17.51 38.2456 17.15H40.0656C39.9723 17.5167 39.8023 17.8467 39.5556 18.14C39.3156 18.4333 39.0123 18.6633 38.6456 18.83C38.279 18.9967 37.869 19.08 37.4156 19.08C36.869 19.08 36.3823 18.9633 35.9556 18.73C35.529 18.4967 35.1956 18.1633 34.9556 17.73C34.7156 17.2967 34.5956 16.79 34.5956 16.21C34.5956 15.63 34.7123 15.1233 34.9456 14.69C35.1856 14.2567 35.519 13.9233 35.9456 13.69C36.3723 13.4567 36.8623 13.34 37.4156 13.34C37.9556 13.34 38.4356 13.4533 38.8556 13.68C39.2756 13.9067 39.6023 14.23 39.8356 14.65C40.0756 15.07 40.1956 15.56 40.1956 16.12ZM38.4456 15.67C38.4456 15.3767 38.3456 15.1433 38.1456 14.97C37.9456 14.7967 37.6956 14.71 37.3956 14.71C37.109 14.71 36.8656 14.7933 36.6656 14.96C36.4723 15.1267 36.3523 15.3633 36.3056 15.67H38.4456ZM42.8577 11.6V19H41.1477V11.6H42.8577ZM49.407 16.12C49.407 16.28 49.397 16.4467 49.377 16.62H45.507C45.5336 16.9667 45.6436 17.2333 45.837 17.42C46.037 17.6 46.2803 17.69 46.567 17.69C46.9936 17.69 47.2903 17.51 47.457 17.15H49.277C49.1836 17.5167 49.0136 17.8467 48.767 18.14C48.527 18.4333 48.2236 18.6633 47.857 18.83C47.4903 18.9967 47.0803 19.08 46.627 19.08C46.0803 19.08 45.5936 18.9633 45.167 18.73C44.7403 18.4967 44.407 18.1633 44.167 17.73C43.927 17.2967 43.807 16.79 43.807 16.21C43.807 15.63 43.9236 15.1233 44.157 14.69C44.397 14.2567 44.7303 13.9233 45.157 13.69C45.5836 13.4567 46.0736 13.34 46.627 13.34C47.167 13.34 47.647 13.4533 48.067 13.68C48.487 13.9067 48.8136 14.23 49.047 14.65C49.287 15.07 49.407 15.56 49.407 16.12ZM47.657 15.67C47.657 15.3767 47.557 15.1433 47.357 14.97C47.157 14.7967 46.907 14.71 46.607 14.71C46.3203 14.71 46.077 14.7933 45.877 14.96C45.6836 15.1267 45.5636 15.3633 45.517 15.67H47.657ZM53.4691 17.55V19H52.5991C51.9791 19 51.4957 18.85 51.1491 18.55C50.8024 18.2433 50.6291 17.7467 50.6291 17.06V14.84H49.9491V13.42H50.6291V12.06H52.3391V13.42H53.4591V14.84H52.3391V17.08C52.3391 17.2467 52.3791 17.3667 52.4591 17.44C52.5391 17.5133 52.6724 17.55 52.8591 17.55H53.4691ZM59.7316 16.12C59.7316 16.28 59.7216 16.4467 59.7016 16.62H55.8316C55.8582 16.9667 55.9682 17.2333 56.1616 17.42C56.3616 17.6 56.6049 17.69 56.8916 17.69C57.3182 17.69 57.6149 17.51 57.7816 17.15H59.6016C59.5082 17.5167 59.3382 17.8467 59.0916 18.14C58.8516 18.4333 58.5482 18.6633 58.1816 18.83C57.8149 18.9967 57.4049 19.08 56.9516 19.08C56.4049 19.08 55.9182 18.9633 55.4916 18.73C55.0649 18.4967 54.7316 18.1633 54.4916 17.73C54.2516 17.2967 54.1316 16.79 54.1316 16.21C54.1316 15.63 54.2482 15.1233 54.4816 14.69C54.7216 14.2567 55.0549 13.9233 55.4816 13.69C55.9082 13.4567 56.3982 13.34 56.9516 13.34C57.4916 13.34 57.9716 13.4533 58.3916 13.68C58.8116 13.9067 59.1382 14.23 59.3716 14.65C59.6116 15.07 59.7316 15.56 59.7316 16.12ZM57.9816 15.67C57.9816 15.3767 57.8816 15.1433 57.6816 14.97C57.4816 14.7967 57.2316 14.71 56.9316 14.71C56.6449 14.71 56.4016 14.7933 56.2016 14.96C56.0082 15.1267 55.8882 15.3633 55.8416 15.67H57.9816Z" fill="#E4F5FF"/>
</svg>
