<svg width="57" height="57" viewBox="0 0 57 57" fill="none" xmlns="http://www.w3.org/2000/svg">
<circle cx="28.5" cy="28.5" r="28.5" fill="#EFF9FF"/>
<mask id="mask0_8_121" style="mask-type:alpha" maskUnits="userSpaceOnUse" x="0" y="0" width="57" height="57">
<circle cx="28.5" cy="28.5" r="28.5" fill="#EFF9FF"/>
</mask>
<g mask="url(#mask0_8_121)">
<rect x="6" y="20" width="47" height="45" rx="13.7755" fill="#109BE9"/>
<g filter="url(#filter0_d_8_121)">
<mask id="path-4-inside-1_8_121" fill="white">
<path d="M6 30.5C6 24.701 10.701 20 16.5 20H42.5C48.299 20 53 24.701 53 30.5V30.5C53 36.299 48.299 41 42.5 41H16.5C10.701 41 6 36.299 6 30.5V30.5Z"/>
</mask>
<path d="M6 30.5C6 24.701 10.701 20 16.5 20H42.5C48.299 20 53 24.701 53 30.5V30.5C53 36.299 48.299 41 42.5 41H16.5C10.701 41 6 36.299 6 30.5V30.5Z" fill="#109BE9"/>
<path d="M6 20H53H6ZM53 30.5C53 36.8513 47.8513 42 41.5 42H17.5C11.1487 42 6 36.8513 6 30.5C6 35.7467 10.701 40 16.5 40H42.5C48.299 40 53 35.7467 53 30.5ZM6 41V20V41ZM53 20V41V20Z" fill="#9EDCFF" mask="url(#path-4-inside-1_8_121)"/>
</g>
<path d="M17 41C15.3431 41 14 39.6569 14 38V20.2951C14 20.2951 15 20 16.5 20C18 20 20 20 20 20V38C20 39.6569 18.6569 41 17 41V41Z" fill="black" fill-opacity="0.3"/>
<path d="M42 41C43.6569 41 45 39.6569 45 38V20.2951C45 20.2951 44 20 42.5 20C41 20 39 20 39 20V38C39 39.6569 40.3431 41 42 41V41Z" fill="black" fill-opacity="0.3"/>
<g filter="url(#filter1_i_8_121)">
<ellipse cx="42" cy="41" rx="4" ry="3" fill="#F0F8FF"/>
</g>
<g filter="url(#filter2_i_8_121)">
<ellipse cx="17" cy="41" rx="4" ry="3" fill="#F0F8FF"/>
</g>
</g>
<path d="M14.5 10L15.2858 12.4184H17.8287L15.7714 13.9131L16.5572 16.3316L14.5 14.8369L12.4428 16.3316L13.2286 13.9131L11.1713 12.4184H13.7142L14.5 10Z" fill="#FFE600"/>
<path d="M21.5 10L22.2858 12.4184H24.8287L22.7714 13.9131L23.5572 16.3316L21.5 14.8369L19.4428 16.3316L20.2286 13.9131L18.1713 12.4184H20.7142L21.5 10Z" fill="#FFE600"/>
<path d="M28.5 10L29.2858 12.4184H31.8287L29.7714 13.9131L30.5572 16.3316L28.5 14.8369L26.4428 16.3316L27.2286 13.9131L25.1713 12.4184H27.7142L28.5 10Z" fill="#FFE600"/>
<path d="M35.5 10L36.2858 12.4184H38.8287L36.7714 13.9131L37.5572 16.3316L35.5 14.8369L33.4428 16.3316L34.2286 13.9131L32.1713 12.4184H34.7142L35.5 10Z" fill="#FFE600"/>
<path d="M42.5 10L43.2858 12.4184H45.8287L43.7714 13.9131L44.5572 16.3316L42.5 14.8369L40.4428 16.3316L41.2286 13.9131L39.1713 12.4184H41.7142L42.5 10Z" fill="#FFE600"/>
<defs>
<filter id="filter0_d_8_121" x="2" y="20" width="55" height="29" filterUnits="userSpaceOnUse" color-interpolation-filters="sRGB">
<feFlood flood-opacity="0" result="BackgroundImageFix"/>
<feColorMatrix in="SourceAlpha" type="matrix" values="0 0 0 0 0 0 0 0 0 0 0 0 0 0 0 0 0 0 127 0" result="hardAlpha"/>
<feOffset dy="4"/>
<feGaussianBlur stdDeviation="2"/>
<feComposite in2="hardAlpha" operator="out"/>
<feColorMatrix type="matrix" values="0 0 0 0 0 0 0 0 0 0 0 0 0 0 0 0 0 0 0.25 0"/>
<feBlend mode="normal" in2="BackgroundImageFix" result="effect1_dropShadow_8_121"/>
<feBlend mode="normal" in="SourceGraphic" in2="effect1_dropShadow_8_121" result="shape"/>
</filter>
<filter id="filter1_i_8_121" x="38" y="38" width="8" height="6" filterUnits="userSpaceOnUse" color-interpolation-filters="sRGB">
<feFlood flood-opacity="0" result="BackgroundImageFix"/>
<feBlend mode="normal" in="SourceGraphic" in2="BackgroundImageFix" result="shape"/>
<feColorMatrix in="SourceAlpha" type="matrix" values="0 0 0 0 0 0 0 0 0 0 0 0 0 0 0 0 0 0 127 0" result="hardAlpha"/>
<feMorphology radius="3" operator="dilate" in="SourceAlpha" result="effect1_innerShadow_8_121"/>
<feOffset dy="-3"/>
<feGaussianBlur stdDeviation="1"/>
<feComposite in2="hardAlpha" operator="arithmetic" k2="-1" k3="1"/>
<feColorMatrix type="matrix" values="0 0 0 0 0.620833 0 0 0 0 0.86371 0 0 0 0 1 0 0 0 1 0"/>
<feBlend mode="normal" in2="shape" result="effect1_innerShadow_8_121"/>
</filter>
<filter id="filter2_i_8_121" x="13" y="38" width="8" height="6" filterUnits="userSpaceOnUse" color-interpolation-filters="sRGB">
<feFlood flood-opacity="0" result="BackgroundImageFix"/>
<feBlend mode="normal" in="SourceGraphic" in2="BackgroundImageFix" result="shape"/>
<feColorMatrix in="SourceAlpha" type="matrix" values="0 0 0 0 0 0 0 0 0 0 0 0 0 0 0 0 0 0 127 0" result="hardAlpha"/>
<feMorphology radius="3" operator="dilate" in="SourceAlpha" result="effect1_innerShadow_8_121"/>
<feOffset dy="-3"/>
<feGaussianBlur stdDeviation="1"/>
<feComposite in2="hardAlpha" operator="arithmetic" k2="-1" k3="1"/>
<feColorMatrix type="matrix" values="0 0 0 0 0.620833 0 0 0 0 0.86371 0 0 0 0 1 0 0 0 1 0"/>
<feBlend mode="normal" in2="shape" result="effect1_innerShadow_8_121"/>
</filter>
</defs>
</svg>
