<svg width="239" height="238" viewBox="0 0 239 238" fill="none" xmlns="http://www.w3.org/2000/svg">
<circle cx="119" cy="119" r="119" fill="#EFF9FF"/>
<path d="M238.5 111C238.5 186.5 184.722 238 119 238C53.2781 238 0 184.722 0 119C72 43 151 159 113 151C75 143 127 75 162 93.4999C197 112 172.5 17 238.5 111Z" fill="#9EDCFF"/>
<mask id="mask0_7_113" style="mask-type:alpha" maskUnits="userSpaceOnUse" x="0" y="0" width="238" height="238">
<circle cx="119" cy="119" r="119" fill="#EFF9FF"/>
</mask>
<g mask="url(#mask0_7_113)">
<path d="M189.637 214.433L197.71 197.596L174.702 186.563V162.879H137.355V237.572H156.029V197.114L189.637 214.433Z" fill="#00B4D8"/>
<path d="M197.701 197.612L189.64 214.449L156.029 197.114V184.665C153.552 184.665 151.178 185.649 149.427 187.399C147.676 189.15 146.692 191.525 146.692 194.001V209.563C146.692 212.039 147.676 214.414 149.427 216.164C151.178 217.915 153.552 218.899 156.029 218.899V237.572H137.355V162.879H174.702V172.216H173.799C171.2 172.212 168.675 173.087 166.635 174.699C164.595 176.31 163.16 178.563 162.561 181.093C161.963 183.623 162.237 186.281 163.339 188.635C164.441 190.99 166.307 192.903 168.633 194.064L176.818 198.172C179.277 199.399 182.093 199.706 184.758 199.038C187.424 198.37 189.762 196.772 191.352 194.531L197.701 197.612Z" fill="#0096C7"/>
<path d="M193.154 81.1525L179.743 102.938C177.252 106.989 173.764 110.335 169.612 112.656C165.461 114.977 160.784 116.195 156.028 116.196C151.272 116.196 146.596 114.978 142.444 112.658C138.292 110.338 134.803 106.994 132.31 102.944L118.903 81.1587C117.993 79.6788 116.561 78.5937 114.89 78.1178C113.219 77.6419 111.43 77.8096 109.877 78.588C109.017 79.0178 108.256 79.6219 107.641 80.3613C107.027 81.1011 106.573 81.9601 106.308 82.8844C106.043 83.8087 105.972 84.7779 106.101 85.7305C106.231 86.6835 106.556 87.5991 107.058 88.4195L124.365 116.741C132.857 130.632 137.352 146.597 137.355 162.879H174.702C174.701 146.597 179.193 130.63 187.686 116.738L204.993 88.4164C205.494 87.596 205.82 86.6804 205.949 85.7274C206.078 84.7748 206.008 83.8056 205.742 82.8813C205.478 81.957 205.023 81.098 204.409 80.3582C203.795 79.6188 203.033 79.0147 202.173 78.5849C200.621 77.8081 198.834 77.6408 197.165 78.116C195.495 78.5913 194.064 79.6745 193.154 81.1525Z" fill="#4CBFFF"/>
<path d="M204.984 88.404L187.68 116.725C183.439 123.637 180.182 131.105 178.001 138.915C175.812 146.715 174.702 154.778 174.702 162.879H137.355C137.357 146.594 132.866 130.623 124.377 116.725L107.073 88.404C106.408 87.3166 106.053 86.0683 106.046 84.7938C106.045 83.0765 106.689 81.4211 107.851 80.1566L136.359 118.841C138.597 121.88 141.518 124.351 144.886 126.054C148.254 127.756 151.975 128.644 155.748 128.645C159.672 128.656 163.539 127.705 167.011 125.877C170.483 124.049 173.455 121.398 175.667 118.157L202.587 78.8184C203.381 79.2839 204.074 79.903 204.625 80.6396C205.177 81.3763 205.575 82.2153 205.798 83.1079C206.022 84.0005 206.065 84.9286 205.925 85.838C205.785 86.7474 205.465 87.6197 204.984 88.404Z" fill="#109BE9"/>
<path d="M156.028 128.645C153.552 128.645 151.177 127.661 149.426 125.91C147.675 124.159 146.692 121.784 146.692 119.308V109.972H165.365V119.308C165.365 121.784 164.381 124.159 162.63 125.91C160.879 127.661 158.504 128.645 156.028 128.645Z" fill="#EDB88E"/>
<path d="M156.028 78.8494C152.727 78.8494 149.56 80.1609 147.226 82.4956C144.891 84.8301 143.58 87.9965 143.58 91.2982H168.477C168.477 87.9965 167.166 84.8301 164.831 82.4956C162.497 80.1609 159.33 78.8494 156.028 78.8494Z" fill="#00B4D8"/>
<path d="M118.903 81.1523C117.907 79.6556 116.369 78.6037 114.614 78.2176C112.858 77.8314 111.021 78.1411 109.49 79.0817C107.957 80.0222 106.85 81.5202 106.4 83.2605C105.95 85.0009 106.193 86.848 107.076 88.4131L112.576 97.4167L122.697 87.2958L118.903 81.1523Z" fill="#F9DBAF"/>
<path d="M202.173 78.5819C200.62 77.8035 198.832 77.6358 197.161 78.1117C195.49 78.5876 194.058 79.6727 193.148 81.1526L189.367 87.2961L199.485 97.417L204.987 88.4134C205.489 87.5933 205.814 86.678 205.944 85.7257C206.073 84.773 206.004 83.8039 205.739 82.8799C205.475 81.9555 205.021 81.0963 204.407 80.3565C203.794 79.6167 203.033 79.0123 202.173 78.5819Z" fill="#F9DBAF"/>
<path d="M117.188 92.7921L112.551 97.4293L107.073 88.4039C106.289 87.1316 105.94 85.638 106.081 84.1498C106.221 82.6615 106.843 81.2598 107.852 80.1565L117.188 92.7921Z" fill="#EDB88E"/>
<path d="M204.984 88.404L199.507 97.4294L193.78 91.7029L202.588 78.8184C203.381 79.2839 204.074 79.903 204.625 80.6396C205.177 81.3763 205.576 82.2153 205.799 83.1079C206.022 84.0005 206.065 84.9286 205.925 85.838C205.785 86.7474 205.465 87.6197 204.984 88.404Z" fill="#EDB88E"/>
<path d="M159.141 122.421C161.275 122.416 163.374 121.87 165.24 120.833C164.859 123.147 163.621 125.232 161.772 126.674C159.924 128.117 157.6 128.811 155.263 128.619C152.926 128.427 150.747 127.362 149.159 125.638C147.571 123.913 146.69 121.653 146.692 119.308V109.972H165.365C165.356 112.725 164.435 115.397 162.745 117.57C161.056 119.744 158.694 121.297 156.028 121.985C157.044 122.258 158.089 122.404 159.141 122.421Z" fill="#DA9367"/>
<path d="M156.028 116.196C152.727 116.196 149.56 114.884 147.226 112.55C144.891 110.215 143.58 107.049 143.58 103.747V91.2982H168.477V103.747C168.477 107.049 167.166 110.215 164.831 112.55C162.497 114.884 159.33 116.196 156.028 116.196Z" fill="#F9DBAF"/>
<path d="M167.357 108.851C166.192 111.449 164.17 113.567 161.631 114.854C159.091 116.14 156.187 116.516 153.403 115.918C150.62 115.321 148.126 113.786 146.338 111.571C144.55 109.356 143.576 106.594 143.58 103.747V91.2982H149.804V97.5226C149.804 100.824 151.116 103.991 153.45 106.325C155.785 108.66 158.951 109.972 162.253 109.972C164.015 109.97 165.756 109.588 167.357 108.851Z" fill="#EDB88E"/>
<path d="M168.477 91.2981H143.58C143.577 88.9618 144.237 86.6721 145.481 84.6949C146.726 82.7177 148.505 81.1333 150.613 80.1252C151.5 82.4949 153.091 84.5368 155.171 85.9775C157.252 87.4181 159.722 88.1887 162.253 88.1859C164.134 88.1958 165.99 87.7586 167.668 86.9099C168.208 88.3098 168.483 89.7977 168.477 91.2981Z" fill="#0096C7"/>
<path d="M197.713 197.599L208.938 202.982L196.827 228.238C193.85 226.81 191.562 224.259 190.466 221.144C189.37 218.03 189.557 214.607 190.984 211.63L197.713 197.599Z" fill="#EDB88E"/>
<path d="M156.028 225.124V237.572H128.019C128.019 234.271 129.33 231.104 131.665 228.77C133.999 226.435 137.166 225.124 140.467 225.124H156.028Z" fill="#EDB88E"/>
<path d="M202.765 200.021L197.751 210.496C197.027 211.995 195.914 213.271 194.529 214.193C193.143 215.115 191.536 215.649 189.874 215.737C189.602 218.283 190.124 220.851 191.369 223.089C192.614 225.326 194.52 227.124 196.827 228.236L208.936 202.98L202.765 200.021Z" fill="#DA9367"/>
<path d="M143.58 231.348C141.868 231.344 140.191 230.867 138.732 229.971C137.274 229.075 136.091 227.794 135.314 226.269C133.141 227.254 131.297 228.843 130.004 230.848C128.71 232.852 128.021 235.187 128.019 237.572H156.028V231.348H143.58Z" fill="#DA9367"/>
<path d="M97.0834 162.879V237.572H78.4101V206.45H41.0635V187.777H59.7368V162.879H97.0834Z" fill="#4CBFFF"/>
<path d="M90.6722 175.328V212.675C90.6772 214.324 91.3345 215.904 92.5006 217.071C93.6671 218.237 95.2475 218.894 96.8966 218.899H97.0834V237.572H78.4101V206.45H41.0635V187.777H59.7368V162.879H97.0834V169.104H96.8966C95.2475 169.109 93.6671 169.766 92.5006 170.932C91.3345 172.099 90.6772 173.679 90.6722 175.328Z" fill="#109BE9"/>
<path d="M72.1853 184.665V190.889C72.1853 193.365 71.2015 195.74 69.4506 197.491C67.6996 199.242 65.3247 200.226 62.8486 200.226H37.7642V206.45H78.4097V178.44C76.759 178.44 75.1758 179.096 74.0084 180.263C72.841 181.431 72.1853 183.014 72.1853 184.665Z" fill="#4CBFFF"/>
<path d="M136.732 124.941C136.876 126.177 136.705 127.43 136.238 128.583C135.77 129.735 135.02 130.752 134.056 131.539L133.869 131.695L122.479 141.032C119.396 143.561 115.461 144.812 111.484 144.528C107.507 144.244 103.79 142.447 101.098 139.507L97.0829 135.087V162.879H59.7363C59.7379 146.594 55.2472 130.623 46.7584 116.725L29.4544 88.404C28.6699 87.1317 28.3214 85.6381 28.4618 84.1499C28.6022 82.6616 29.2238 81.2599 30.2325 80.1566C31.1187 79.1557 32.275 78.4315 33.5626 78.0714C35.0553 77.7027 36.627 77.8244 38.0452 78.4186C39.4633 79.0128 40.6524 80.0477 41.4365 81.3704L54.6945 102.938C57.1843 106.991 60.6715 110.338 64.8235 112.659C68.9752 114.98 73.6529 116.198 78.4096 116.196H93.8462C95.5417 116.191 97.2257 116.476 98.8257 117.036C101.702 117.985 104.228 119.773 106.077 122.171L112.831 130.792L125.497 120.584C126.246 119.976 127.112 119.529 128.042 119.273C128.972 119.017 129.945 118.958 130.899 119.098C131.853 119.239 132.768 119.576 133.584 120.089C134.401 120.602 135.102 121.28 135.643 122.078C136.231 122.931 136.604 123.913 136.732 124.941Z" fill="#4CBFFF"/>
<path d="M133.691 122.436C133.834 123.672 133.664 124.924 133.196 126.077C132.729 127.23 131.978 128.247 131.014 129.034L130.828 129.189L119.437 138.526C116.354 141.055 112.42 142.306 108.443 142.023C104.466 141.739 100.749 139.942 98.0561 137.001L94.0414 132.582V160.374H56.6948C56.6964 144.088 52.2057 128.118 43.7169 114.22L26.4129 85.8985C25.6284 84.6262 25.2799 83.1327 25.4203 81.6444C25.5607 80.1561 26.1823 78.7544 27.191 77.6511L55.6989 116.336C57.9366 119.375 60.8574 121.845 64.2251 123.548C67.5932 125.251 71.3141 126.139 75.088 126.139C79.0109 126.131 82.8744 125.181 86.3542 123.37L86.404 123.345C87.817 122.55 89.449 122.233 91.0571 122.441C92.6648 122.649 94.1624 123.371 95.3267 124.499L103.378 132.551C105.026 134.202 107.232 135.178 109.562 135.284C111.893 135.391 114.179 134.621 115.97 133.126L123.172 127.135C126.296 124.533 128.527 121.018 129.552 117.083C130.789 117.598 131.849 118.463 132.602 119.573C133.189 120.426 133.563 121.408 133.691 122.436Z" fill="#109BE9"/>
<path d="M135.644 122.072C135.101 121.275 134.399 120.599 133.581 120.088C132.764 119.576 131.849 119.241 130.895 119.102C129.941 118.964 128.968 119.025 128.039 119.283C127.11 119.541 126.244 119.989 125.498 120.6L120.344 124.748L128.473 136.114L134.041 131.539C135.434 130.44 136.369 128.863 136.665 127.114C136.961 125.365 136.597 123.568 135.644 122.072Z" fill="#F9DBAF"/>
<path d="M78.4131 128.645C80.8895 128.645 83.2641 127.661 85.015 125.91C86.7659 124.159 87.7497 121.784 87.7497 119.308V109.972H69.0764V119.308C69.0764 121.784 70.0602 124.159 71.8111 125.91C73.562 127.661 75.937 128.645 78.4131 128.645Z" fill="#F9DBAF"/>
<path d="M78.413 116.196C81.7147 116.196 84.8811 114.884 87.2156 112.55C89.5504 110.215 90.8618 107.049 90.8618 103.747V91.2982H65.9641V103.747C65.9641 107.049 67.2756 110.215 69.6104 112.55C71.9449 114.884 75.1112 116.196 78.413 116.196Z" fill="#F9DBAF"/>
<path d="M78.413 78.8494H90.8618V91.2982H65.9641C65.9641 87.9965 67.2756 84.8301 69.6104 82.4956C71.9449 80.1609 75.1112 78.8494 78.413 78.8494Z" fill="#00B4D8"/>
<path d="M32.268 78.5819C33.8213 77.8035 35.6099 77.6358 37.2808 78.1117C38.9517 78.5876 40.3835 79.6727 41.2935 81.1526L45.0748 87.2961L34.9632 97.417L29.4484 88.4134C28.9469 87.593 28.6214 86.6774 28.4923 85.7244C28.3632 84.7718 28.4334 83.8026 28.6985 82.8783C28.9636 81.954 29.4177 81.095 30.0322 80.3552C30.6466 79.6158 31.408 79.0117 32.268 78.5819Z" fill="#F9DBAF"/>
<path d="M28.6172 215.787V187.777H41.066V203.338C41.066 206.64 39.7545 209.806 37.4199 212.141C35.0852 214.476 31.9188 215.787 28.6172 215.787Z" fill="#EDB88E"/>
<path d="M106.423 237.572H78.4131V225.124H93.9742C97.2759 225.124 100.442 226.435 102.777 228.77C105.112 231.104 106.423 234.271 106.423 237.572Z" fill="#EDB88E"/>
<path d="M81.5219 122.421C83.6565 122.416 85.7554 121.87 87.6218 120.833C87.2403 123.147 86.0022 125.232 84.1536 126.674C82.3052 128.117 79.9813 128.811 77.6447 128.619C75.3077 128.427 73.1288 127.362 71.5407 125.638C69.9525 123.913 69.0718 121.653 69.073 119.308V109.972H87.7463C87.7373 112.725 86.8161 115.397 85.1267 117.57C83.4374 119.744 81.0753 121.297 78.4096 121.985C79.4252 122.258 80.4706 122.404 81.5219 122.421Z" fill="#DA9367"/>
<path d="M89.738 108.851C88.5728 111.449 86.5514 113.567 84.0119 114.854C81.472 116.14 78.568 116.516 75.7844 115.918C73.0012 115.321 70.507 113.786 68.7191 111.571C66.9311 109.356 65.9573 106.594 65.9607 103.747V91.2982H72.1851V97.5226C72.1851 100.824 73.4966 103.991 75.8314 106.325C78.1659 108.66 81.3322 109.972 84.634 109.972C86.3961 109.97 88.1371 109.588 89.738 108.851Z" fill="#EDB88E"/>
<path d="M45.0779 87.2835L39.5693 92.8233L30.2327 80.1566C30.7938 79.4974 31.4818 78.9574 32.2556 78.5693C33.812 77.8015 35.5986 77.6407 37.2671 78.1182C38.9356 78.5958 40.3665 79.6776 41.281 81.1525L45.0779 87.2835Z" fill="#F9DBAF"/>
<path d="M39.5691 92.8232L34.9631 97.4293L29.4544 88.4039C28.6699 87.1316 28.3214 85.638 28.4618 84.1498C28.6022 82.6615 29.2238 81.2598 30.2325 80.1565L39.5691 92.8232Z" fill="#EDB88E"/>
<path d="M132.593 119.588C131.569 123.523 129.338 127.039 126.213 129.641L124.72 130.886L120.331 124.755L125.498 120.584C126.475 119.782 127.654 119.264 128.905 119.089C130.158 118.913 131.434 119.086 132.593 119.588Z" fill="#F9DBAF"/>
<path d="M134.056 131.54L128.485 136.114L124.719 130.886L126.213 129.641C129.337 127.039 131.569 123.524 132.593 119.589C133.831 120.104 134.891 120.969 135.643 122.078C136.597 123.572 136.962 125.366 136.669 127.114C136.376 128.862 135.445 130.439 134.056 131.54Z" fill="#EDB88E"/>
<path d="M81.3353 85.074C79.6389 85.0696 77.976 84.6012 76.5267 83.7198C75.0776 82.8381 73.8968 81.5771 73.1129 80.0726C70.9791 81.0729 69.1741 82.6595 67.908 84.6473C66.6423 86.6351 65.9682 88.9418 65.9641 91.2984H90.8618V85.074H81.3353Z" fill="#0096C7"/>
<path d="M90.8585 231.348C92.5703 231.344 94.2474 230.867 95.7058 229.971C97.1642 229.075 98.3471 227.794 99.1246 226.269C101.298 227.254 103.141 228.843 104.434 230.848C105.728 232.852 106.417 235.187 106.42 237.572H78.4097V231.348H90.8585Z" fill="#DA9367"/>
<path d="M34.8416 200.226C34.8461 201.938 35.3226 203.615 36.2187 205.073C37.1148 206.532 38.3958 207.715 39.9208 208.492C38.9359 210.665 37.3463 212.508 35.3418 213.802C33.3374 215.096 31.0028 215.785 28.6172 215.787V187.777H34.8416V200.226Z" fill="#DA9367"/>
<path d="M207.242 197.667L196.017 192.283L174.773 182.097V160.374C174.773 144.661 179.105 129.252 187.293 115.841C187.592 115.353 187.75 114.792 187.751 114.22V114.188C187.744 113.501 187.511 112.836 187.087 112.295C186.663 111.754 186.072 111.369 185.406 111.2C184.74 111.03 184.037 111.086 183.406 111.358C182.775 111.63 182.252 112.103 181.918 112.704C173.738 126.169 169.17 141.515 168.654 157.261H137.292C137.003 148.552 135.467 139.929 132.733 131.654L132.976 131.452C134.969 129.854 136.297 127.571 136.7 125.047C137.102 122.524 136.552 119.941 135.154 117.802C134.029 116.119 132.414 114.823 130.529 114.088C128.643 113.352 126.577 113.214 124.61 113.69C124.401 113.326 124.205 112.956 123.988 112.595L113.462 95.3782L119.064 89.7762L126.627 102.069C129.937 107.403 134.788 111.606 140.538 114.123V116.803C140.538 120.104 141.85 123.271 144.185 125.605C146.519 127.94 149.685 129.252 152.987 129.252C156.289 129.252 159.455 127.94 161.79 125.605C164.125 123.271 165.436 120.104 165.436 116.803V114.129C171.188 111.608 176.041 107.402 179.354 102.066L186.917 89.7762L192.519 95.3782L188.494 101.964C188.277 102.313 188.13 102.701 188.064 103.107C187.997 103.513 188.011 103.928 188.106 104.328C188.201 104.728 188.374 105.106 188.615 105.439C188.857 105.772 189.162 106.053 189.513 106.268C189.864 106.482 190.254 106.624 190.661 106.687C191.067 106.75 191.482 106.731 191.881 106.633C192.281 106.534 192.656 106.357 192.987 106.112C193.317 105.868 193.596 105.56 193.807 105.207L204.606 87.5323C205.356 86.4078 205.871 85.1437 206.121 83.8157C206.37 82.4877 206.35 81.123 206.06 79.8028C205.77 78.4829 205.217 77.2352 204.434 76.1339C203.651 75.0327 202.653 74.1007 201.502 73.3938C200.35 72.6869 199.068 72.2195 197.731 72.0196C196.394 71.8197 195.031 71.8914 193.723 72.2305C192.415 72.5695 191.189 73.1689 190.118 73.9928C189.047 74.8166 188.152 75.8481 187.489 77.0254L174.076 98.811C172.459 101.402 170.369 103.665 167.913 105.48C168.322 104.104 168.536 102.677 168.548 101.242V88.7927C168.548 84.6656 166.909 80.7075 163.99 77.7895C161.072 74.8711 157.114 73.2317 152.987 73.2317C148.86 73.2317 144.902 74.8711 141.984 77.7895C139.066 80.7075 137.426 84.6656 137.426 88.7927C137.426 89.6181 137.754 90.4098 138.338 90.9934C138.921 91.5769 139.713 91.905 140.538 91.905H162.324V101.242C162.324 103.718 161.34 106.093 159.589 107.844C157.838 109.594 155.463 110.578 152.987 110.578C150.511 110.578 148.136 109.594 146.385 107.844C144.634 106.093 143.651 103.718 143.651 101.242C143.651 100.416 143.322 99.6245 142.739 99.041C142.155 98.4574 141.364 98.1294 140.538 98.1294C139.713 98.1294 138.921 98.4574 138.338 99.041C137.754 99.6245 137.426 100.416 137.426 101.242C137.447 102.677 137.669 104.103 138.086 105.477C135.633 103.658 133.542 101.396 131.921 98.8079L118.51 77.0223C117.115 74.7487 114.875 73.1222 112.281 72.5007C109.688 71.8791 106.953 72.3133 104.679 73.7078C102.406 75.1023 100.779 77.3429 100.158 79.9366C99.5361 82.5303 99.9703 85.265 101.365 87.5385L118.675 115.86C118.852 116.149 119.008 116.451 119.176 116.747L110.306 123.889L105.501 117.736C103.759 115.499 101.529 113.691 98.9793 112.45C96.4304 111.209 93.6307 110.569 90.7957 110.578H87.8205V110.482C89.8307 107.82 90.9227 104.577 90.9327 101.242V76.3439C90.9327 75.5185 90.6047 74.7269 90.0211 74.1432C89.4376 73.5596 88.6458 73.2317 87.8205 73.2317H75.3716C71.2461 73.2366 67.291 74.8776 64.3737 77.7948C61.4566 80.7122 59.8155 84.6672 59.8105 88.7927C59.8105 89.6181 60.1386 90.4098 60.7221 90.9934C61.3056 91.5769 62.0974 91.905 62.9227 91.905H84.7083V101.242C84.7083 103.718 83.7245 106.093 81.9736 107.844C80.2226 109.594 77.8477 110.578 75.3716 110.578C72.8955 110.578 70.5206 109.594 68.7697 107.844C67.0187 106.093 66.035 103.718 66.035 101.242C66.035 100.416 65.7069 99.6245 65.1234 99.041C64.5398 98.4574 63.7481 98.1294 62.9227 98.1294C62.0974 98.1294 61.3056 98.4574 60.7221 99.041C60.1386 99.6245 59.8105 100.416 59.8105 101.242C59.8314 102.676 60.0536 104.101 60.4703 105.474C58.0176 103.656 55.9265 101.395 54.305 98.8079L41.0345 77.2402C39.9002 75.334 38.1772 73.8479 36.125 73.006C34.0728 72.164 31.8025 72.0116 29.6563 72.5719C28.1553 72.9868 26.7711 73.7443 25.6125 74.7849C24.4539 75.8254 23.5526 77.1207 22.9794 78.5685C22.4063 80.0166 22.177 81.5777 22.3094 83.1294C22.442 84.6809 22.9327 86.1807 23.7431 87.5105L41.0532 115.832C49.2514 129.242 53.5873 144.656 53.583 160.374C53.583 161.199 53.911 161.991 54.4945 162.574C55.0781 163.158 55.8698 163.486 56.6952 163.486H90.9296V219.506H78.4807V179.047C78.4807 178.222 78.1527 177.43 77.5691 176.846C76.9856 176.263 76.1939 175.935 75.3685 175.935C74.5431 175.935 73.7514 176.263 73.1678 176.846C72.5843 177.43 72.2563 178.222 72.2563 179.047V200.833H41.1341V188.384H56.6952C57.5206 188.384 58.3123 188.056 58.8958 187.472C59.4794 186.889 59.8074 186.097 59.8074 185.271V172.823C59.8074 171.997 59.4794 171.205 58.8958 170.622C58.3123 170.038 57.5206 169.71 56.6952 169.71C55.8698 169.71 55.0781 170.038 54.4945 170.622C53.911 171.205 53.583 171.997 53.583 172.823V182.159H25.573C24.7476 182.159 23.956 182.487 23.3724 183.071C22.7887 183.654 22.4608 184.446 22.4608 185.271V213.281C22.4608 214.107 22.7887 214.898 23.3724 215.482C23.956 216.066 24.7476 216.394 25.573 216.394C28.5974 216.39 31.555 215.504 34.0843 213.846C36.6136 212.188 38.6048 209.829 39.8145 207.057H72.2594V235.067C72.2594 235.892 72.5874 236.684 73.171 237.268C73.7545 237.851 74.5462 238.179 75.3716 238.179H103.382C104.207 238.179 104.999 237.851 105.582 237.268C106.166 236.684 106.494 235.892 106.494 235.067C106.488 232.042 105.603 229.085 103.945 226.556C102.287 224.026 99.9282 222.034 97.1571 220.822V160.374V140.456C100.482 143.416 104.755 145.091 109.206 145.179C113.657 145.267 117.993 143.762 121.432 140.935L127.551 135.909C129.954 143.842 131.184 152.084 131.202 160.374V210.169C131.202 210.995 131.53 211.786 132.113 212.37C132.697 212.953 133.489 213.281 134.314 213.281C135.139 213.281 135.931 212.953 136.515 212.37C137.098 211.786 137.426 210.995 137.426 210.169V163.486H168.548V184.058C168.549 184.643 168.715 185.217 169.027 185.712C169.339 186.208 169.785 186.605 170.313 186.859L190.52 196.547L185.177 207.692L156.099 192.713V179.047C156.099 178.222 155.771 177.43 155.188 176.846C154.604 176.263 153.813 175.935 152.987 175.935C152.162 175.935 151.37 176.263 150.787 176.846C150.203 177.43 149.875 178.222 149.875 179.047V219.506H137.426C133.301 219.511 129.346 221.152 126.428 224.069C123.511 226.986 121.87 230.941 121.865 235.067C121.865 235.892 122.193 236.684 122.777 237.268C123.36 237.851 124.152 238.179 124.977 238.179H152.987C153.813 238.179 154.604 237.851 155.188 237.268C155.771 236.684 156.099 235.892 156.099 235.067V199.712L183.63 213.904C183.505 216.936 184.273 219.939 185.838 222.539C187.404 225.14 189.699 227.223 192.438 228.531C193.182 228.888 194.037 228.935 194.816 228.661C195.594 228.387 196.232 227.816 196.589 227.072L208.696 201.819C209.053 201.076 209.101 200.221 208.828 199.443C208.556 198.664 207.985 198.026 207.242 197.667ZM197.741 78.8336C198.216 79.0711 198.637 79.4047 198.976 79.8134C199.315 80.222 199.566 80.6966 199.712 81.207C199.859 81.7177 199.897 82.253 199.826 82.7793C199.754 83.3056 199.574 83.8113 199.297 84.2645L195.858 89.8945L190.272 84.3298L192.761 80.2839C193.265 79.4695 194.053 78.8707 194.973 78.6027C195.892 78.3351 196.878 78.4172 197.741 78.8336ZM144.183 85.6805C144.826 83.8589 146.018 82.2817 147.594 81.1659C149.171 80.0502 151.055 79.4511 152.987 79.4511C154.919 79.4511 156.803 80.0502 158.38 81.1659C159.957 82.2817 161.149 83.8589 161.792 85.6805H144.183ZM159.212 115.483V116.803C159.212 118.453 158.556 120.037 157.388 121.204C156.221 122.371 154.638 123.027 152.987 123.027C151.336 123.027 149.753 122.371 148.586 121.204C147.418 120.037 146.763 118.453 146.763 116.803V115.483C148.722 116.353 150.843 116.803 152.987 116.803C155.131 116.803 157.252 116.353 159.212 115.483ZM106.263 81.2301C106.468 80.5158 106.876 79.8762 107.437 79.3895C107.999 78.9027 108.69 78.59 109.426 78.4891C110.162 78.3883 110.912 78.5034 111.584 78.8212C112.256 79.1386 112.821 79.6447 113.21 80.2777L115.7 84.3236L110.098 89.9256L106.659 84.2925C106.381 83.8384 106.203 83.3311 106.135 82.8033C106.067 82.2758 106.111 81.7395 106.263 81.2301ZM34.9128 200.833C34.9104 202.763 34.311 204.645 33.1966 206.222C32.0822 207.798 30.5075 208.991 28.6884 209.637V188.384H34.9128V200.833ZM130.038 121.331C130.546 122.187 130.724 123.2 130.537 124.179C130.351 125.157 129.814 126.034 129.026 126.644L126.029 129.102L121.554 122.825L124.439 120.5C124.852 120.164 125.331 119.918 125.845 119.778C126.358 119.637 126.896 119.605 127.422 119.683C127.949 119.761 128.454 119.948 128.905 120.232C129.356 120.515 129.74 120.89 130.038 121.331ZM75.3716 79.4561H84.7083V85.6805H66.5671C67.2132 83.8614 68.4062 82.2867 69.9825 81.1722C71.5588 80.058 73.4411 79.4586 75.3716 79.4561ZM81.596 115.483V116.803C81.596 118.453 80.9403 120.037 79.7729 121.204C78.6055 122.371 77.0223 123.027 75.3716 123.027C73.7209 123.027 72.1377 122.371 70.9703 121.204C69.8029 120.037 69.1472 118.453 69.1472 116.803V115.483C71.1069 116.353 73.2273 116.803 75.3716 116.803C77.5159 116.803 79.6363 116.353 81.596 115.483ZM28.7631 80.8846C28.9833 80.3225 29.3328 79.8205 29.7832 79.4187C30.2336 79.017 30.7722 78.7269 31.3555 78.5722C32.1958 78.3864 33.0734 78.4733 33.8608 78.8203C34.6483 79.1673 35.3046 79.7564 35.7344 80.5018L38.0873 84.3298L32.5039 89.9131L29.0618 84.2831C28.752 83.7786 28.5637 83.2088 28.5118 82.619C28.46 82.0293 28.546 81.4355 28.7631 80.8846ZM99.7371 231.955H78.4838V225.73H90.9327C92.8632 225.733 94.7455 226.332 96.3218 227.446C97.8981 228.561 99.091 230.136 99.7371 231.955ZM100.36 134.891L96.3448 130.475C95.9219 130.011 95.3688 129.686 94.7579 129.542C94.147 129.398 93.5068 129.442 92.9217 129.669C92.3363 129.895 91.833 130.294 91.4783 130.811C91.1232 131.329 90.933 131.941 90.9327 132.569V157.261H59.7576C59.2239 141.472 54.6134 126.088 46.3751 112.607L35.8402 95.3782L41.4422 89.7762L49.0049 102.069C52.3172 107.403 57.1704 111.606 62.9227 114.123V116.803C62.9227 120.104 64.2342 123.271 66.569 125.605C68.9035 127.94 72.0699 129.252 75.3716 129.252C78.6734 129.252 81.8397 127.94 84.1742 125.605C86.509 123.271 87.8205 120.104 87.8205 116.803H90.7957C92.6861 116.798 94.5525 117.226 96.2518 118.054C97.951 118.882 99.4381 120.088 100.599 121.58L107.347 130.204C107.601 130.528 107.917 130.8 108.277 131.001C108.637 131.202 109.033 131.33 109.443 131.377C109.853 131.424 110.268 131.389 110.664 131.274C111.06 131.159 111.429 130.967 111.75 130.708L116.686 126.734L121.208 133.064L117.474 136.13C115.007 138.155 111.857 139.156 108.674 138.925C105.491 138.695 102.518 137.251 100.369 134.891H100.36ZM149.875 231.955H128.622C129.268 230.136 130.461 228.561 132.037 227.446C133.613 226.332 135.496 225.733 137.426 225.73H149.875V231.955ZM192.553 221.102C191.191 219.733 190.286 217.976 189.962 216.071C189.639 214.167 189.914 212.21 190.748 210.468L196.132 199.242L201.734 201.934L192.553 221.102Z" fill="#023E8A"/>
</g>
</svg>
