<svg width="58" height="57" viewBox="0 0 58 57" fill="none" xmlns="http://www.w3.org/2000/svg">
<circle cx="28.5" cy="28.5" r="28.5" fill="#EFF9FF"/>
<path d="M57.1197 26.584C57.1197 44.666 44.2401 57 28.5 57C12.7599 57 0 44.2401 0 28.5C17.2437 10.2983 36.1639 38.0798 27.063 36.1639C17.9622 34.2479 30.416 17.9622 38.7983 22.3928C47.1807 26.8235 41.313 4.07142 57.1197 26.584Z" fill="#9EDCFF"/>
<mask id="mask0_7_113" style="mask-type:alpha" maskUnits="userSpaceOnUse" x="0" y="0" width="57" height="57">
<circle cx="28.5" cy="28.5" r="28.5" fill="#EFF9FF"/>
</mask>
<g mask="url(#mask0_7_113)">
<path d="M45.4173 51.3558L47.3508 47.3234L41.8403 44.6811V39.0089H32.896V56.8976H37.3682V47.2079L45.4173 51.3558Z" fill="#4CBFFF"/>
<path d="M47.3486 47.3272L45.4181 51.3596L37.3682 47.2079V44.2264C36.7752 44.2264 36.2064 44.4621 35.787 44.8814C35.3677 45.3007 35.1321 45.8695 35.1321 46.4625V50.1894C35.1321 50.7824 35.3677 51.3511 35.787 51.7705C36.2064 52.1898 36.7752 52.4254 37.3682 52.4254V56.8976H32.896V39.0089H41.8403V41.245H41.6242C41.0016 41.2441 40.397 41.4536 39.9084 41.8396C39.4198 42.2254 39.076 42.7652 38.9328 43.3711C38.7894 43.977 38.8551 44.6135 39.1191 45.1774C39.383 45.7412 39.8298 46.1994 40.3869 46.4774L42.3472 47.4613C42.936 47.7551 43.6105 47.8288 44.2488 47.6688C44.8872 47.5089 45.4473 47.126 45.828 46.5892L47.3486 47.3272Z" fill="#109BE9"/>
<path d="M46.2595 19.4357L43.0477 24.6532C42.451 25.6234 41.6157 26.4247 40.6214 26.9806C39.6272 27.5364 38.5071 27.8283 37.3681 27.8284C36.2291 27.8284 35.109 27.5366 34.1146 26.9811C33.1203 26.4255 32.2848 25.6246 31.6877 24.6547L28.4766 19.4371C28.2587 19.0827 27.9158 18.8228 27.5156 18.7089C27.1155 18.5949 26.6871 18.6351 26.3151 18.8215C26.1091 18.9244 25.9268 19.0691 25.7796 19.2462C25.6325 19.4234 25.5237 19.6291 25.4602 19.8505C25.3967 20.0718 25.3799 20.3039 25.4108 20.5321C25.4417 20.7603 25.5197 20.9796 25.6398 21.1761L29.7847 27.9589C31.8187 31.2858 32.8952 35.1094 32.8959 39.0089H41.8402C41.84 35.1093 42.916 31.2853 44.9499 27.9581L49.0949 21.1753C49.2149 20.9789 49.2929 20.7596 49.3238 20.5313C49.3548 20.3032 49.3379 20.0711 49.2744 19.8497C49.211 19.6283 49.1022 19.4226 48.955 19.2454C48.8079 19.0683 48.6255 18.9237 48.4196 18.8207C48.0478 18.6347 47.6199 18.5946 47.2201 18.7084C46.8202 18.8223 46.4775 19.0817 46.2595 19.4357Z" fill="#4CBFFF"/>
<path d="M49.0928 21.1723L44.9486 27.9551C43.9329 29.6104 43.1528 31.3991 42.6305 33.2695C42.1063 35.1376 41.8404 37.0687 41.8404 39.0088H32.8961C32.8964 35.1085 31.8209 31.2837 29.7879 27.9551L25.6437 21.1723C25.4844 20.9119 25.3993 20.6129 25.3977 20.3077C25.3974 19.8964 25.5517 19.4999 25.83 19.1971L32.6575 28.462C33.1935 29.1897 33.893 29.7814 34.6995 30.1893C35.5062 30.597 36.3973 30.8096 37.3011 30.8098C38.2409 30.8124 39.167 30.5847 39.9985 30.1469C40.8301 29.709 41.5418 29.0743 42.0715 28.298L48.5189 18.8766C48.7089 18.9881 48.8748 19.1363 49.0069 19.3128C49.139 19.4892 49.2345 19.6902 49.2879 19.9039C49.3414 20.1177 49.3516 20.34 49.3182 20.5578C49.2846 20.7755 49.208 20.9845 49.0928 21.1723Z" fill="#109BE9"/>
<path d="M37.3682 30.8099C36.7752 30.8099 36.2064 30.5743 35.787 30.155C35.3677 29.7357 35.1321 29.1669 35.1321 28.5739V26.3378H39.6043V28.5739C39.6043 29.1669 39.3686 29.7357 38.9493 30.155C38.53 30.5743 37.9612 30.8099 37.3682 30.8099Z" fill="#EDB88E"/>
<path d="M37.3682 18.8842C36.5774 18.8842 35.8191 19.1983 35.26 19.7574C34.7008 20.3165 34.3867 21.0749 34.3867 21.8656H40.3496C40.3496 21.0749 40.0355 20.3165 39.4764 19.7574C38.9173 19.1983 38.1589 18.8842 37.3682 18.8842Z" fill="#00B4D8"/>
<path d="M28.4767 19.4355C28.2382 19.0771 27.87 18.8252 27.4496 18.7327C27.0291 18.6402 26.5892 18.7144 26.2223 18.9396C25.8554 19.1649 25.5902 19.5236 25.4824 19.9404C25.3746 20.3573 25.4327 20.7996 25.6444 21.1745L26.9614 23.3308L29.3853 20.9069L28.4767 19.4355Z" fill="#F9DBAF"/>
<path d="M48.4197 18.82C48.0477 18.6336 47.6193 18.5934 47.2192 18.7074C46.819 18.8214 46.4761 19.0813 46.2582 19.4357L45.3525 20.907L47.7757 23.331L49.0935 21.1746C49.2137 20.9782 49.2917 20.759 49.3227 20.5309C49.3537 20.3028 49.3371 20.0707 49.2737 19.8494C49.2104 19.628 49.1018 19.4222 48.9547 19.245C48.8077 19.0679 48.6256 18.9231 48.4197 18.82Z" fill="#F9DBAF"/>
<path d="M28.0659 22.2233L26.9553 23.3339L25.6435 21.1724C25.4556 20.8676 25.3721 20.51 25.4057 20.1535C25.4394 19.7971 25.5883 19.4614 25.8298 19.1971L28.0659 22.2233Z" fill="#EDB88E"/>
<path d="M49.093 21.1723L47.7811 23.3339L46.4097 21.9624L48.519 18.8766C48.7091 18.9881 48.875 19.1363 49.0071 19.3128C49.1392 19.4892 49.2347 19.6902 49.2881 19.9039C49.3415 20.1177 49.3518 20.34 49.3184 20.5578C49.2848 20.7755 49.2082 20.9845 49.093 21.1723Z" fill="#EDB88E"/>
<path d="M38.1135 29.3192C38.6248 29.3181 39.1274 29.1873 39.5744 28.9391C39.4831 29.4932 39.1866 29.9926 38.7438 30.338C38.3011 30.6835 37.7446 30.8497 37.185 30.8038C36.6253 30.7577 36.1034 30.5028 35.7231 30.0897C35.3427 29.6765 35.1318 29.1354 35.1321 28.5739V26.3378H39.6043C39.6021 26.9971 39.3815 27.6371 38.9769 28.1576C38.5723 28.6783 38.0066 29.0501 37.3682 29.2149C37.6114 29.2803 37.8617 29.3153 38.1135 29.3192Z" fill="#DA9367"/>
<path d="M37.3682 27.8284C36.5774 27.8284 35.8191 27.5143 35.26 26.9551C34.7008 26.396 34.3867 25.6377 34.3867 24.8469V21.8655H40.3496V24.8469C40.3496 25.6377 40.0355 26.396 39.4764 26.9551C38.9173 27.5143 38.1589 27.8284 37.3682 27.8284Z" fill="#F9DBAF"/>
<path d="M40.0813 26.0693C39.8022 26.6914 39.3181 27.1988 38.7099 27.5069C38.1016 27.815 37.4061 27.905 36.7395 27.7619C36.0729 27.6188 35.4755 27.2512 35.0473 26.7207C34.6191 26.1901 34.3859 25.5287 34.3867 24.8469V21.8655H35.8774V23.3562C35.8774 24.147 36.1915 24.9053 36.7507 25.4644C37.3098 26.0236 38.0681 26.3377 38.8589 26.3377C39.2809 26.3373 39.6979 26.2458 40.0813 26.0693Z" fill="#EDB88E"/>
<path d="M40.3496 21.8655H34.3867C34.3861 21.306 34.5441 20.7576 34.8422 20.2841C35.1403 19.8106 35.5664 19.4311 36.0712 19.1897C36.2837 19.7572 36.6647 20.2462 37.1629 20.5913C37.6611 20.9363 38.2528 21.1209 38.8589 21.1202C39.3093 21.1226 39.7539 21.0178 40.1558 20.8146C40.2851 21.1499 40.3509 21.5062 40.3496 21.8655Z" fill="#0096C7"/>
<path d="M47.3513 47.324L50.0397 48.6132L47.1391 54.6619C46.4261 54.32 45.8781 53.7089 45.6157 52.9629C45.3533 52.2171 45.398 51.3975 45.7399 50.6844L47.3513 47.324Z" fill="#EDB88E"/>
<path d="M37.3682 53.9161V56.8976H30.6599C30.6599 56.1068 30.974 55.3485 31.5332 54.7894C32.0923 54.2302 32.8506 53.9161 33.6414 53.9161H37.3682Z" fill="#EDB88E"/>
<path d="M48.5611 47.9041L47.3604 50.4129C47.187 50.7718 46.9205 51.0776 46.5887 51.2984C46.2569 51.5191 45.8719 51.6469 45.4739 51.6681C45.4087 52.2779 45.5338 52.8929 45.8319 53.4288C46.13 53.9647 46.5866 54.3953 47.139 54.6615L50.0392 48.6129L48.5611 47.9041Z" fill="#DA9367"/>
<path d="M34.3867 55.4069C33.9768 55.4058 33.5751 55.2916 33.2258 55.077C32.8765 54.8624 32.5932 54.5557 32.407 54.1904C31.8866 54.4263 31.4452 54.807 31.1354 55.2871C30.8255 55.7671 30.6605 56.3263 30.6599 56.8976H37.3682V55.4069H34.3867Z" fill="#DA9367"/>
<path d="M23.251 39.0089V56.8976H18.7788V49.444H9.83447V44.9718H14.3066V39.0089H23.251Z" fill="#4CBFFF"/>
<path d="M21.7156 41.9904V50.9347C21.7167 51.3297 21.8742 51.7082 22.1535 51.9875C22.4328 52.2668 22.8113 52.4242 23.2063 52.4254H23.251V56.8976H18.7788V49.444H9.83447V44.9718H14.3066V39.0089H23.251V40.4996H23.2063C22.8113 40.5008 22.4328 40.6583 22.1535 40.9375C21.8742 41.2169 21.7167 41.5954 21.7156 41.9904Z" fill="#109BE9"/>
<path d="M17.2881 44.2264V45.7172C17.2881 46.3102 17.0525 46.879 16.6332 47.2983C16.2139 47.7176 15.6451 47.9533 15.0521 47.9533H9.04443V49.444H18.7789V42.7357C18.3835 42.7357 18.0044 42.8928 17.7248 43.1724C17.4452 43.4519 17.2881 43.8311 17.2881 44.2264Z" fill="#4CBFFF"/>
<path d="M32.747 29.9229C32.7813 30.2189 32.7405 30.5188 32.6285 30.795C32.5165 31.071 32.3368 31.3146 32.106 31.5031L32.0613 31.5403L29.3332 33.7764C28.5949 34.3821 27.6527 34.6817 26.7002 34.6138C25.7477 34.5458 24.8574 34.1155 24.2126 33.4112L23.2511 32.3528V39.0089H14.3067C14.3071 35.1085 13.2316 31.2837 11.1986 27.9551L7.05434 21.1723C6.86644 20.8676 6.78298 20.5099 6.81661 20.1535C6.85023 19.7971 6.99911 19.4613 7.24068 19.1971C7.45293 18.9574 7.72986 18.784 8.03822 18.6977C8.39572 18.6094 8.77214 18.6386 9.11178 18.7809C9.45141 18.9232 9.7362 19.171 9.92399 19.4878L13.0992 24.6532C13.6955 25.6239 14.5307 26.4254 15.5251 26.9813C16.5194 27.5372 17.6397 27.8289 18.7789 27.8284H22.4759C22.882 27.8273 23.2853 27.8954 23.6685 28.0297C24.3573 28.2568 24.9623 28.6851 25.4052 29.2595L27.0226 31.3242L30.0562 28.8794C30.2354 28.7336 30.4429 28.6266 30.6656 28.5654C30.8883 28.5041 31.1214 28.4898 31.35 28.5235C31.5785 28.5571 31.7975 28.638 31.9931 28.7608C32.1887 28.8836 32.3566 29.0459 32.4861 29.2372C32.6268 29.4415 32.7163 29.6767 32.747 29.9229Z" fill="#4CBFFF"/>
<path d="M32.0185 29.3229C32.0528 29.6189 32.012 29.9189 31.9 30.195C31.788 30.4711 31.6083 30.7146 31.3775 30.9031L31.3327 30.9404L28.6047 33.1765C27.8664 33.7821 26.9241 34.0818 25.9716 34.0139C25.0191 33.9459 24.1289 33.5155 23.4841 32.8112L22.5226 31.7528V38.4089H13.5782C13.5786 34.5086 12.5031 30.6837 10.47 27.3552L6.32583 20.5724C6.13793 20.2677 6.05446 19.91 6.08809 19.5535C6.12172 19.1971 6.27059 18.8614 6.51217 18.5972L13.3397 27.862C13.8756 28.5898 14.5751 29.1815 15.3817 29.5893C16.1883 29.9971 17.0795 30.2097 17.9833 30.2099C18.9228 30.2078 19.8481 29.9803 20.6815 29.5465L20.6934 29.5406C21.0318 29.3502 21.4227 29.2743 21.8078 29.3241C22.1929 29.374 22.5515 29.5469 22.8304 29.8171L24.7586 31.7454C25.1532 32.1409 25.6815 32.3745 26.2398 32.4C26.7979 32.4256 27.3453 32.2412 27.7744 31.8833L29.4991 30.4484C30.2474 29.8252 30.7818 28.9833 31.0271 28.0409C31.3235 28.1643 31.5774 28.3715 31.7576 28.6372C31.8983 28.8415 31.9878 29.0767 32.0185 29.3229Z" fill="#109BE9"/>
<path d="M32.486 29.2357C32.3561 29.0447 32.1879 28.8829 31.9921 28.7604C31.7964 28.638 31.5772 28.5576 31.3486 28.5245C31.1201 28.4913 30.8872 28.506 30.6646 28.5678C30.4421 28.6296 30.2349 28.737 30.0561 28.8831L28.8218 29.8767L30.7687 32.5988L32.1021 31.5031C32.4357 31.2399 32.6597 30.8622 32.7306 30.4433C32.8016 30.0243 32.7144 29.594 32.486 29.2357Z" fill="#F9DBAF"/>
<path d="M18.7795 30.8099C19.3726 30.8099 19.9413 30.5743 20.3607 30.155C20.78 29.7357 21.0156 29.1669 21.0156 28.5739V26.3378H16.5435V28.5739C16.5435 29.1669 16.7791 29.7357 17.1984 30.155C17.6177 30.5743 18.1865 30.8099 18.7795 30.8099Z" fill="#F9DBAF"/>
<path d="M18.7795 27.8284C19.5703 27.8284 20.3286 27.5143 20.8877 26.9551C21.4469 26.396 21.761 25.6377 21.761 24.8469V21.8655H15.7981V24.8469C15.7981 25.6377 16.1122 26.396 16.6714 26.9551C17.2305 27.5143 17.9888 27.8284 18.7795 27.8284Z" fill="#F9DBAF"/>
<path d="M18.7795 18.8842H21.761V21.8656H15.7981C15.7981 21.0749 16.1122 20.3165 16.6714 19.7574C17.2305 19.1983 17.9888 18.8842 18.7795 18.8842Z" fill="#00B4D8"/>
<path d="M7.72817 18.82C8.10016 18.6336 8.52852 18.5934 8.9287 18.7074C9.32887 18.8214 9.67177 19.0813 9.88972 19.4357L10.7953 20.907L8.37365 23.331L7.05287 21.1746C6.93277 20.9781 6.8548 20.7589 6.82389 20.5306C6.79297 20.3025 6.8098 20.0704 6.87328 19.849C6.93676 19.6276 7.04553 19.4219 7.19269 19.2447C7.33985 19.0676 7.52219 18.923 7.72817 18.82Z" fill="#F9DBAF"/>
<path d="M6.85376 51.6802V44.9719H9.83521V48.6987C9.83521 49.4895 9.52109 50.2478 8.96197 50.8069C8.40283 51.3661 7.64449 51.6802 6.85376 51.6802Z" fill="#EDB88E"/>
<path d="M25.4878 56.8976H18.7795V53.9161H22.5064C23.2971 53.9161 24.0554 54.2302 24.6145 54.7894C25.1737 55.3485 25.4878 56.1068 25.4878 56.8976Z" fill="#EDB88E"/>
<path d="M19.5242 29.3192C20.0354 29.3181 20.5381 29.1873 20.9851 28.9391C20.8937 29.4932 20.5972 29.9926 20.1545 30.338C19.7118 30.6835 19.1552 30.8497 18.5956 30.8038C18.0359 30.7577 17.5141 30.5028 17.1337 30.0897C16.7534 29.6765 16.5424 29.1354 16.5427 28.5739V26.3378H21.0149C21.0127 26.9971 20.7921 27.6371 20.3875 28.1576C19.9829 28.6783 19.4172 29.0501 18.7788 29.2149C19.022 29.2803 19.2724 29.3153 19.5242 29.3192Z" fill="#DA9367"/>
<path d="M21.4919 26.0693C21.2129 26.6914 20.7288 27.1988 20.1205 27.5069C19.5123 27.815 18.8168 27.905 18.1501 27.7619C17.4835 27.6188 16.8862 27.2512 16.458 26.7207C16.0298 26.1901 15.7965 25.5287 15.7974 24.8469V21.8655H17.2881V23.3562C17.2881 24.147 17.6022 24.9053 18.1614 25.4644C18.7205 26.0236 19.4788 26.3377 20.2695 26.3377C20.6916 26.3373 21.1085 26.2458 21.4919 26.0693Z" fill="#EDB88E"/>
<path d="M10.7961 20.904L9.47681 22.2308L7.24072 19.1972C7.37512 19.0393 7.53987 18.91 7.72521 18.817C8.09796 18.6331 8.52583 18.5946 8.92544 18.709C9.32504 18.8233 9.66774 19.0824 9.88676 19.4357L10.7961 20.904Z" fill="#F9DBAF"/>
<path d="M9.47677 22.2308L8.37363 23.3339L7.05434 21.1724C6.86644 20.8676 6.78298 20.51 6.81661 20.1535C6.85023 19.7971 6.99911 19.4614 7.24068 19.1971L9.47677 22.2308Z" fill="#EDB88E"/>
<path d="M31.7556 28.6409C31.5102 29.5833 30.9759 30.4252 30.2276 31.0484L29.8698 31.3465L28.8188 29.8782L30.0561 28.8794C30.2901 28.6872 30.5725 28.5633 30.8723 28.5212C31.1722 28.4791 31.4778 28.5206 31.7556 28.6409Z" fill="#F9DBAF"/>
<path d="M32.1057 31.5032L30.7715 32.5989L29.8696 31.3467L30.2274 31.0485C30.9757 30.4253 31.51 29.5834 31.7554 28.641C32.0518 28.7643 32.3057 28.9716 32.4859 29.2373C32.7142 29.5951 32.8017 30.0248 32.7315 30.4434C32.6613 30.8619 32.4383 31.2395 32.1057 31.5032Z" fill="#EDB88E"/>
<path d="M19.4794 20.3749C19.0731 20.3739 18.6749 20.2617 18.3278 20.0506C17.9807 19.8395 17.698 19.5374 17.5102 19.1771C16.9992 19.4167 16.5669 19.7967 16.2636 20.2727C15.9605 20.7488 15.7991 21.3013 15.7981 21.8656H21.761V20.3749H19.4794Z" fill="#0096C7"/>
<path d="M21.7603 55.4069C22.1702 55.4058 22.5719 55.2916 22.9212 55.077C23.2704 54.8624 23.5538 54.5557 23.7399 54.1904C24.2604 54.4263 24.7018 54.807 25.0116 55.2871C25.3215 55.7671 25.4865 56.3263 25.4871 56.8976H18.7788V55.4069H21.7603Z" fill="#DA9367"/>
<path d="M8.34448 47.9534C8.34556 48.3633 8.45968 48.765 8.67429 49.1143C8.88891 49.4636 9.1957 49.7469 9.56092 49.9331C9.32505 50.4535 8.94434 50.8949 8.46428 51.2047C7.98422 51.5146 7.42511 51.6796 6.85376 51.6802V44.9719H8.34448V47.9534Z" fill="#DA9367"/>
<path d="M49.6339 47.3405L46.9454 46.051L41.8575 43.6115V38.4088C41.8576 34.6456 42.8951 30.9553 44.8561 27.7434C44.9277 27.6266 44.9655 27.4922 44.9657 27.3551V27.3477C44.9642 27.1831 44.9084 27.0236 44.8068 26.8942C44.7052 26.7647 44.5637 26.6725 44.4042 26.632C44.2448 26.5913 44.0763 26.6047 43.9252 26.6698C43.7741 26.735 43.6488 26.8483 43.5689 26.9921C41.6098 30.2169 40.5156 33.8923 40.3921 37.6635H32.8811C32.8117 35.5776 32.444 33.5123 31.7892 31.5306L31.8473 31.4822C32.3248 31.0994 32.6427 30.5526 32.7392 29.9483C32.8356 29.344 32.7037 28.7254 32.3691 28.213C32.0996 27.8101 31.7129 27.4996 31.2613 27.3235C30.8097 27.1474 30.3148 27.1142 29.8438 27.2284C29.7938 27.1412 29.7469 27.0525 29.6947 26.966L27.1739 22.8427L28.5155 21.501L30.3268 24.4452C31.1195 25.7225 32.2813 26.7292 33.6585 27.332V27.9738C33.6585 28.7645 33.9726 29.5228 34.5318 30.0819C35.0909 30.6411 35.8492 30.9552 36.64 30.9552C37.4307 30.9552 38.1891 30.6411 38.7482 30.0819C39.3073 29.5228 39.6214 28.7645 39.6214 27.9738V27.3335C40.999 26.7296 42.1612 25.7223 42.9547 24.4445L44.7659 21.501L46.1076 22.8427L45.1438 24.4199C45.0916 24.5034 45.0566 24.5965 45.0407 24.6937C45.0247 24.7909 45.0281 24.8903 45.0509 24.9861C45.0735 25.082 45.115 25.1724 45.1728 25.2521C45.2307 25.3319 45.3038 25.3994 45.3879 25.4506C45.4719 25.502 45.5653 25.5361 45.6627 25.5511C45.76 25.5662 45.8594 25.5617 45.955 25.5381C46.0506 25.5144 46.1406 25.4721 46.2198 25.4134C46.2989 25.3549 46.3657 25.2811 46.4162 25.1965L49.0026 20.9636C49.182 20.6943 49.3054 20.3916 49.3653 20.0735C49.425 19.7555 49.4201 19.4286 49.3507 19.1124C49.2813 18.7963 49.1488 18.4975 48.9612 18.2338C48.7737 17.97 48.5348 17.7468 48.259 17.5775C47.9831 17.4082 47.676 17.2963 47.3559 17.2484C47.0359 17.2005 46.7094 17.2177 46.3961 17.2989C46.0828 17.3801 45.7891 17.5236 45.5326 17.721C45.2761 17.9183 45.0619 18.1653 44.9031 18.4473L41.6906 23.6648C41.3035 24.2853 40.8028 24.8273 40.2147 25.2621C40.3127 24.9325 40.3638 24.5908 40.3668 24.2469V21.2655C40.3668 20.2771 39.9741 19.3291 39.2752 18.6303C38.5764 17.9313 37.6284 17.5387 36.64 17.5387C35.6516 17.5387 34.7036 17.9313 34.0047 18.6303C33.3058 19.3291 32.9132 20.2771 32.9132 21.2655C32.9132 21.4632 32.9917 21.6528 33.1315 21.7925C33.2712 21.9323 33.4609 22.0109 33.6585 22.0109H38.8761V24.2469C38.8761 24.84 38.6405 25.4087 38.2211 25.8281C37.8018 26.2474 37.233 26.483 36.64 26.483C36.0469 26.483 35.4782 26.2474 35.0588 25.8281C34.6395 25.4087 34.4039 24.84 34.4039 24.2469C34.4039 24.0493 34.3253 23.8597 34.1856 23.7199C34.0458 23.5801 33.8562 23.5016 33.6585 23.5016C33.4609 23.5016 33.2712 23.5801 33.1315 23.7199C32.9917 23.8597 32.9132 24.0493 32.9132 24.2469C32.9182 24.5908 32.9715 24.9322 33.0712 25.2614C32.4838 24.8256 31.983 24.2839 31.5946 23.6641L28.3829 18.4465C28.0489 17.902 27.5123 17.5125 26.8911 17.3636C26.2699 17.2147 25.6149 17.3187 25.0705 17.6527C24.526 17.9867 24.1364 18.5233 23.9875 19.1445C23.8387 19.7657 23.9427 20.4206 24.2766 20.9651L28.4224 27.7479C28.4648 27.8172 28.5021 27.8895 28.5424 27.9603L26.4181 29.6709L25.2672 28.1974C24.8501 27.6616 24.3159 27.2285 23.7053 26.9313C23.0949 26.6341 22.4243 26.4808 21.7454 26.483H21.0328V26.4599C21.5143 25.8223 21.7758 25.0458 21.7782 24.2469V18.284C21.7782 18.0864 21.6996 17.8968 21.5599 17.757C21.4201 17.6172 21.2305 17.5387 21.0328 17.5387H18.0514C17.0633 17.5399 16.1161 17.9329 15.4174 18.6315C14.7188 19.3302 14.3258 20.2774 14.3246 21.2655C14.3246 21.4632 14.4031 21.6528 14.5429 21.7925C14.6826 21.9323 14.8723 22.0109 15.0699 22.0109H20.2875V24.2469C20.2875 24.84 20.0519 25.4087 19.6325 25.8281C19.2132 26.2474 18.6444 26.483 18.0514 26.483C17.4584 26.483 16.8896 26.2474 16.4702 25.8281C16.0509 25.4087 15.8153 24.84 15.8153 24.2469C15.8153 24.0493 15.7367 23.8597 15.597 23.7199C15.4572 23.5801 15.2676 23.5016 15.0699 23.5016C14.8723 23.5016 14.6826 23.5801 14.5429 23.7199C14.4031 23.8597 14.3246 24.0493 14.3246 24.2469C14.3296 24.5906 14.3828 24.9318 14.4826 25.2606C13.8952 24.8252 13.3944 24.2837 13.006 23.6641L9.82779 18.4987C9.55612 18.0422 9.14347 17.6863 8.65198 17.4846C8.16048 17.283 7.61677 17.2465 7.10275 17.3807C6.74327 17.48 6.41175 17.6615 6.13427 17.9107C5.85681 18.1599 5.64094 18.4701 5.50367 18.8168C5.36641 19.1636 5.31148 19.5375 5.34321 19.9092C5.37495 20.2807 5.49248 20.6399 5.68656 20.9584L9.83226 27.7412C11.7957 30.953 12.8341 34.6445 12.8331 38.4088C12.8331 38.6065 12.9117 38.7961 13.0514 38.9359C13.1912 39.0756 13.3808 39.1542 13.5785 39.1542H21.7774V52.5707H18.796V42.881C18.796 42.6833 18.7174 42.4937 18.5777 42.354C18.4379 42.2142 18.2483 42.1356 18.0506 42.1356C17.853 42.1356 17.6633 42.2142 17.5236 42.354C17.3838 42.4937 17.3053 42.6833 17.3053 42.881V48.0985H9.85164V45.1171H13.5785C13.7761 45.1171 13.9657 45.0385 14.1055 44.8988C14.2453 44.759 14.3238 44.5694 14.3238 44.3717V41.3903C14.3238 41.1926 14.2453 41.003 14.1055 40.8632C13.9657 40.7235 13.7761 40.6449 13.5785 40.6449C13.3808 40.6449 13.1912 40.7235 13.0514 40.8632C12.9117 41.003 12.8331 41.1926 12.8331 41.3903V43.6264H6.12483C5.92715 43.6264 5.73756 43.7049 5.59778 43.8447C5.458 43.9844 5.37947 44.1741 5.37947 44.3717V51.08C5.37947 51.2777 5.458 51.4673 5.59778 51.607C5.73756 51.7468 5.92715 51.8254 6.12483 51.8254C6.84915 51.8244 7.55749 51.6124 8.16324 51.2153C8.76899 50.8182 9.24588 50.2531 9.53561 49.5893H17.306V56.2975C17.306 56.4952 17.3846 56.6848 17.5243 56.8246C17.6641 56.9643 17.8537 57.0429 18.0514 57.0429H24.7596C24.9573 57.0429 25.1469 56.9643 25.2867 56.8246C25.4264 56.6848 25.505 56.4952 25.505 56.2975C25.5037 55.5732 25.2916 54.8649 24.8946 54.2591C24.4974 53.6533 23.9326 53.1762 23.2689 52.886V38.4088V33.6385C24.0652 34.3476 25.0886 34.7487 26.1547 34.7698C27.2206 34.7908 28.2591 34.4303 29.0827 33.7533L30.5481 32.5495C31.1236 34.4495 31.4182 36.4236 31.4224 38.4088V50.3346C31.4224 50.5323 31.501 50.7219 31.6408 50.8617C31.7805 51.0014 31.9701 51.08 32.1678 51.08C32.3655 51.08 32.5551 51.0014 32.6948 50.8617C32.8346 50.7219 32.9132 50.5323 32.9132 50.3346V39.1542H40.3668V44.081C40.367 44.2213 40.4067 44.3586 40.4815 44.4773C40.5563 44.5959 40.663 44.6911 40.7894 44.7519L45.6291 47.0722L44.3493 49.7413L37.3853 46.1539V42.881C37.3853 42.6833 37.3068 42.4937 37.167 42.354C37.0273 42.2142 36.8376 42.1356 36.64 42.1356C36.4423 42.1356 36.2527 42.2142 36.1129 42.354C35.9732 42.4937 35.8946 42.6833 35.8946 42.881V52.5707H32.9132C31.9251 52.5719 30.9779 52.9649 30.2792 53.6636C29.5806 54.3623 29.1875 55.3095 29.1864 56.2975C29.1864 56.4952 29.2649 56.6848 29.4047 56.8246C29.5444 56.9643 29.734 57.0429 29.9317 57.0429H36.64C36.8376 57.0429 37.0273 56.9643 37.167 56.8246C37.3068 56.6848 37.3853 56.4952 37.3853 56.2975V47.8302L43.9788 51.2291C43.9489 51.9554 44.1327 52.6745 44.5077 53.2972C44.8827 53.92 45.4323 54.419 46.0882 54.7323C46.2664 54.8178 46.4713 54.8289 46.6577 54.7634C46.8442 54.6978 46.997 54.5609 47.0825 54.3827L49.982 48.3348C50.0675 48.1568 50.0789 47.9521 50.0136 47.7657C49.9484 47.5792 49.8118 47.4263 49.6339 47.3405ZM47.3583 18.8803C47.4721 18.9372 47.5728 19.0171 47.6541 19.115C47.7354 19.2128 47.7954 19.3265 47.8305 19.4487C47.8655 19.5711 47.8748 19.6993 47.8576 19.8253C47.8405 19.9513 47.7974 20.0725 47.731 20.181L46.9074 21.5294L45.5694 20.1966L46.1657 19.2277C46.2864 19.0326 46.4751 18.8892 46.6953 18.825C46.9156 18.7609 47.1518 18.7806 47.3583 18.8803ZM34.5313 20.5201C34.6853 20.0839 34.9708 19.7061 35.3484 19.4389C35.7261 19.1717 36.1773 19.0282 36.64 19.0282C37.1026 19.0282 37.5539 19.1717 37.9315 19.4389C38.3091 19.7061 38.5946 20.0839 38.7486 20.5201H34.5313ZM38.1307 27.6577V27.9738C38.1307 28.3691 37.9737 28.7483 37.6941 29.0278C37.4145 29.3074 37.0353 29.4645 36.64 29.4645C36.2446 29.4645 35.8655 29.3074 35.5859 29.0278C35.3063 28.7483 35.1493 28.3691 35.1493 27.9738V27.6577C35.6186 27.8661 36.1264 27.9738 36.64 27.9738C37.1535 27.9738 37.6614 27.8661 38.1307 27.6577ZM25.4498 19.4543C25.4988 19.2832 25.5965 19.13 25.731 19.0135C25.8655 18.8969 26.031 18.822 26.2073 18.7978C26.3836 18.7737 26.5632 18.8013 26.724 18.8774C26.885 18.9534 27.0203 19.0746 27.1135 19.2262L27.7098 20.1952L26.3681 21.5368L25.5445 20.1877C25.4781 20.079 25.4354 19.9575 25.4191 19.831C25.4027 19.7047 25.4133 19.5763 25.4498 19.4543ZM8.36166 48.0985C8.3611 48.5609 8.21753 49.0117 7.95064 49.3892C7.68375 49.7667 7.30661 50.0524 6.87094 50.2072V45.1171H8.36166V48.0985ZM31.1437 29.0583C31.2654 29.2634 31.308 29.5059 31.2634 29.7403C31.2187 29.9746 31.09 30.1846 30.9014 30.3306L30.1836 30.9194L29.1118 29.416L29.8028 28.8592C29.9018 28.7789 30.0165 28.7199 30.1395 28.6862C30.2625 28.6526 30.3912 28.6449 30.5173 28.6636C30.6435 28.6823 30.7644 28.727 30.8724 28.795C30.9804 28.8629 31.0723 28.9526 31.1437 29.0583ZM18.0514 19.0294H20.2875V20.5201H15.9427C16.0975 20.0845 16.3832 19.7073 16.7607 19.4404C17.1382 19.1736 17.589 19.03 18.0514 19.0294ZM19.5421 27.6577V27.9738C19.5421 28.3691 19.3851 28.7483 19.1055 29.0278C18.8259 29.3074 18.4467 29.4645 18.0514 29.4645C17.656 29.4645 17.2769 29.3074 16.9973 29.0278C16.7177 28.7483 16.5607 28.3691 16.5607 27.9738V27.6577C17.03 27.8661 17.5378 27.9738 18.0514 27.9738C18.5649 27.9738 19.0728 27.8661 19.5421 27.6577ZM6.88883 19.3715C6.94157 19.2369 7.02527 19.1167 7.13313 19.0205C7.241 18.9242 7.37001 18.8548 7.50971 18.8177C7.71095 18.7732 7.92112 18.794 8.10972 18.8771C8.29832 18.9602 8.4555 19.1013 8.55844 19.2798L9.12193 20.1966L7.78475 21.5338L6.96038 20.1855C6.88617 20.0646 6.84107 19.9282 6.82865 19.7869C6.81624 19.6457 6.83684 19.5035 6.88883 19.3715ZM23.8868 55.5522H18.7967V54.0614H21.7782C22.2405 54.062 22.6913 54.2056 23.0689 54.4724C23.4464 54.7394 23.7321 55.1165 23.8868 55.5522ZM24.0359 32.3058L23.0744 31.2481C22.9731 31.1371 22.8406 31.0592 22.6943 31.0247C22.548 30.9903 22.3947 31.0009 22.2546 31.0552C22.1144 31.1094 21.9938 31.2048 21.9089 31.3287C21.8238 31.4527 21.7783 31.5994 21.7782 31.7498V37.6635H14.3119C14.1841 33.8819 13.0799 30.1976 11.1068 26.969L8.58378 22.8427L9.92544 21.501L11.7367 24.4452C12.53 25.7226 13.6923 26.7292 15.0699 27.332V27.9738C15.0699 28.7645 15.384 29.5228 15.9432 30.0819C16.5023 30.6411 17.2606 30.9552 18.0514 30.9552C18.8421 30.9552 19.6005 30.6411 20.1596 30.0819C20.7187 29.5228 21.0328 28.7645 21.0328 27.9738H21.7454C22.1981 27.9726 22.6451 28.0751 23.0521 28.2735C23.4591 28.4717 23.8152 28.7606 24.0933 29.1179L25.7092 31.1833C25.7701 31.261 25.8459 31.326 25.9321 31.3742C26.0183 31.4224 26.1131 31.453 26.2113 31.4643C26.3095 31.4755 26.4088 31.4671 26.5037 31.4396C26.5986 31.4121 26.687 31.3661 26.7639 31.304L27.9461 30.3522L29.0291 31.8683L28.1346 32.6025C27.5439 33.0875 26.7895 33.3272 26.0271 33.272C25.2648 33.2168 24.5528 32.8709 24.0381 32.3058H24.0359ZM35.8946 55.5522H30.8045C30.9593 55.1165 31.245 54.7394 31.6225 54.4724C32 54.2056 32.4508 54.062 32.9132 54.0614H35.8946V55.5522ZM46.1158 52.9531C45.7895 52.6251 45.5729 52.2043 45.4954 51.7482C45.418 51.2922 45.4837 50.8234 45.6835 50.4062L46.9729 47.7177L48.3146 48.3624L46.1158 52.9531Z" fill="#023E8A"/>
</g>
</svg>
