<svg width="58" height="57" viewBox="0 0 58 57" fill="none" xmlns="http://www.w3.org/2000/svg">
<circle cx="28.5" cy="28.5" r="28.5" fill="#EFF9FF"/>
<path d="M57.1197 26.584C57.1197 44.666 44.2401 57 28.5 57C12.7599 57 0 44.2401 0 28.5C17.2437 10.2983 36.1639 38.0798 27.063 36.1639C17.9622 34.2479 30.416 17.9622 38.7983 22.3928C47.1807 26.8235 41.313 4.07142 57.1197 26.584Z" fill="#9EDCFF"/>
<mask id="mask0_8_70" style="mask-type:alpha" maskUnits="userSpaceOnUse" x="0" y="0" width="57" height="57">
<circle cx="28.5" cy="28.5" r="28.5" fill="#EFF9FF"/>
</mask>
<g mask="url(#mask0_8_70)">
<rect x="8" y="12" width="42.2449" height="45" rx="13.7755" fill="#109BE9"/>
<rect x="15.3469" y="18.1416" width="28.4694" height="18.683" rx="4.44834" fill="#F0F8FF" fill-opacity="0.5"/>
<path d="M33.1147 26.9383C33.4957 27.1324 33.4957 27.6768 33.1147 27.8709L28.1184 30.4162C27.7702 30.5935 27.3575 30.3406 27.3575 29.9498V24.8594C27.3575 24.4686 27.7702 24.2157 28.1184 24.3931L33.1147 26.9383Z" fill="#F0F8FF"/>
<rect x="15.3469" y="41.3878" width="28.4694" height="2.7551" rx="1.37755" fill="#F0F8FF" fill-opacity="0.5"/>
<circle cx="36.4692" cy="42.3061" r="2.7551" fill="#F0F8FF"/>
</g>
</svg>
