<svg width="39" height="39" viewBox="0 0 39 39" fill="none" xmlns="http://www.w3.org/2000/svg">
<circle cx="19.1305" cy="19.1305" r="19.1305" fill="#DDEFFF"/>
<mask id="mask0_32_85" style="mask-type:alpha" maskUnits="userSpaceOnUse" x="0" y="0" width="39" height="39">
<circle cx="19.1305" cy="19.1305" r="19.1305" fill="#EFF9FF"/>
</mask>
<g mask="url(#mask0_32_85)">
<ellipse cx="18.7072" cy="44.0888" rx="29.3132" ry="19.2052" fill="#9EDCFF"/>
<path d="M5.5668 40.3825C5.5668 40.3825 2.87134 40.3825 2.87134 37.6871C2.87134 34.9916 5.5668 26.9052 19.0441 26.9052C32.5214 26.9052 35.2169 34.9916 35.2169 37.6871C35.2169 40.3825 32.5214 40.3825 32.5214 40.3825H5.5668Z" fill="#109BE9"/>
<path d="M19.0441 24.2098C23.5101 24.2098 27.1305 20.5894 27.1305 16.1234C27.1305 11.6574 23.5101 8.03699 19.0441 8.03699C14.5781 8.03699 10.9577 11.6574 10.9577 16.1234C10.9577 20.5894 14.5781 24.2098 19.0441 24.2098Z" fill="#109BE9"/>
</g>
</svg>
